<svg width="196" height="196" viewBox="0 0 196 196" fill="none" xmlns="http://www.w3.org/2000/svg">
<g filter="url(#filter0_i_106_128)">
<rect width="196" height="196" rx="16" fill="#212733"/>
<path d="M55.7167 149C39.3046 149 26 135.695 26 119.283V76.7167C26 60.3046 39.3046 47 55.7167 47H79.1774C82.6325 47 85.4334 49.8009 85.4334 53.256V53.256C85.4334 56.7111 82.6325 59.512 79.1774 59.512H53.9622C45.4747 59.512 38.5942 66.3925 38.5942 74.88V74.88C38.5942 83.3675 45.4747 90.248 53.9622 90.248H75.0406C78.0451 90.248 80.4806 92.6836 80.4806 95.688V95.688C80.4806 98.6924 78.0451 101.128 75.0406 101.128H56.2742C46.5098 101.128 38.5942 109.044 38.5942 118.808V118.808C38.5942 128.572 46.5098 136.488 56.2742 136.488H79.1774C82.6325 136.488 85.4334 139.289 85.4334 142.744V142.744C85.4334 146.199 82.6325 149 79.1774 149H55.7167Z" fill="#F5F3F4"/>
<path d="M139.717 149C130.283 149 122.831 146.461 117.359 141.384C111.887 136.307 109.152 129.325 109.152 120.44V75.56C109.152 66.6747 111.887 59.6933 117.359 54.616C122.831 49.5387 130.283 47 139.717 47C148.962 47 156.321 49.584 161.793 54.752C165.875 58.5405 168.435 63.3637 169.471 69.2217C170.084 72.6848 167.149 75.56 163.632 75.56V75.56C160.115 75.56 157.426 72.6454 156.466 69.2622C155.711 66.6024 154.421 64.395 152.594 62.64C149.576 59.5573 145.283 58.016 139.717 58.016C134.151 58.016 129.765 59.512 126.557 62.504C123.444 65.496 121.887 69.8027 121.887 75.424V120.44C121.887 126.061 123.444 130.413 126.557 133.496C129.765 136.488 134.151 137.984 139.717 137.984C145.283 137.984 149.576 136.488 152.594 133.496C154.426 131.683 155.718 129.43 156.472 126.739C157.421 123.353 160.115 120.44 163.632 120.44V120.44C167.149 120.44 170.083 123.315 169.473 126.778C168.437 132.657 165.877 137.526 161.793 141.384C156.321 146.461 148.962 149 139.717 149Z" fill="#F5F3F4"/>
<rect x="3" y="3" width="190" height="190" rx="40" stroke="#F5F3F4" stroke-width="10"/>
</g>
<defs>
<filter id="filter0_i_106_128" x="0" y="0" width="196" height="200" filterUnits="userSpaceOnUse" color-interpolation-filters="sRGB">
<feFlood flood-opacity="0" result="BackgroundImageFix"/>
<feBlend mode="normal" in="SourceGraphic" in2="BackgroundImageFix" result="shape"/>
<feColorMatrix in="SourceAlpha" type="matrix" values="0 0 0 0 0 0 0 0 0 0 0 0 0 0 0 0 0 0 127 0" result="hardAlpha"/>
<feOffset dy="4"/>
<feGaussianBlur stdDeviation="2"/>
<feComposite in2="hardAlpha" operator="arithmetic" k2="-1" k3="1"/>
<feColorMatrix type="matrix" values="0 0 0 0 0 0 0 0 0 0 0 0 0 0 0 0 0 0 0.25 0"/>
<feBlend mode="normal" in2="shape" result="effect1_innerShadow_106_128"/>
</filter>
</defs>
</svg>
